HIERARCHY
ROOT root     
{
	OFFSET 0.0000 0.0000 0.0000
	CHANNELS 6 Xposition Yposition Zposition Zrotation Yrotation Xrotation
	JOINT pelvis   
	{
		OFFSET 0.0000 0.0000 0.0000
		CHANNELS 3 Zrotation Yrotation Xrotation
		JOINT thorax   
		{
			OFFSET 0.0000 23.0750 -5.0000
			CHANNELS 3 Zrotation Yrotation Xrotation
			JOINT rclavicle
			{
				OFFSET 0.0000 28.0009 0.0000
				CHANNELS 3 Zrotation Yrotation Xrotation
				JOINT rhumerus 
				{
					OFFSET -18.5725 5.5939 0.0000
					CHANNELS 3 Zrotation Yrotation Xrotation
					JOINT rradius  
					{
						OFFSET -24.8459 0.0000 0.0000
						CHANNELS 3 Zrotation Yrotation Xrotation
						JOINT rhand    
						{
							OFFSET -24.5477 0.0000 0.0000
							CHANNELS 3 Zrotation Yrotation Xrotation
							End Site
							{
								OFFSET -8.1826 0.0000 0.0000
							}
						}
					}
				}
			}
			JOINT lclavicle
			{
				OFFSET 0.0000 28.0009 0.0000
				CHANNELS 3 Zrotation Yrotation Xrotation
				JOINT lhumerus 
				{
					OFFSET 18.5725 5.5939 0.0000
					CHANNELS 3 Zrotation Yrotation Xrotation
					JOINT lradius  
					{
						OFFSET 24.8459 0.0000 0.0000
						CHANNELS 3 Zrotation Yrotation Xrotation
						JOINT lhand    
						{
							OFFSET 24.5477 0.0000 0.0000
							CHANNELS 3 Zrotation Yrotation Xrotation
							End Site
							{
								OFFSET 8.1826 0.0000 0.0000
							}
						}
					}
				}
			}
			JOINT head     
			{
				OFFSET 0.0000 35.2030 0.0000
				CHANNELS 3 Zrotation Yrotation Xrotation
				End Site
				{
					OFFSET 0.0000 11.7343 0.0000
				}
			}
		}
		JOINT rfemur   
		{
			OFFSET -8.2817 0.0000 0.0000
			CHANNELS 3 Zrotation Yrotation Xrotation
			JOINT rtibia   
			{
				OFFSET 0.0000 -43.3627 0.0000
				CHANNELS 3 Zrotation Yrotation Xrotation
				JOINT rfoot    
				{
					OFFSET 0.0000 -38.2947 0.0000
					CHANNELS 3 Zrotation Yrotation Xrotation
					JOINT rtoes    
					{
						OFFSET 0.0000 0.0000 16.6054
						CHANNELS 3 Zrotation Yrotation Xrotation
						End Site
						{
							OFFSET 0.0000 0.0000 5.5351
						}
					}
				}
			}
		}
		JOINT lfemur   
		{
			OFFSET 8.2817 0.0000 0.0000
			CHANNELS 3 Zrotation Yrotation Xrotation
			JOINT ltibia   
			{
				OFFSET 0.0000 -43.3627 0.0000
				CHANNELS 3 Zrotation Yrotation Xrotation
				JOINT lfoot    
				{
					OFFSET 0.0000 -38.2947 0.0000
					CHANNELS 3 Zrotation Yrotation Xrotation
					JOINT ltoes    
					{
						OFFSET 0.0000 0.0000 16.6054
						CHANNELS 3 Zrotation Yrotation Xrotation
						End Site
						{
							OFFSET 0.0000 0.0000 5.5351
						}
					}
				}
			}
		}
	}
}
MOTION
Frames: 23
Frame Time: .0333333
-53.581 84.061 -12.42 102.325 85.5815 125.251 0 -0 0 -11.2642 3.85252 -8.03416 26.1253 -6.69716 3.41003e-05 44.6714 9.82205 14.3696 -180 83.8554 -180 10.46 6.88068 0.630587 -22.8475 13.7873 -0.000116376 -41.6177 12.5549 -11.542 -1.76724e-06 -79.2799 1.46406e-06 12.0458 1.11589 0.117701 5.64583 0.802286 -24.1772 -5.89629 -10.9616 3.9239 -0 -0 24.1416 9.0776e-06 14.4252 41.5705 9.68601 -1.23942e-05 -72.0484 -5.69466 -3.14333 -41.6157 -0 -0 31.2002 3.68344e-06 7.4943 -3.27771 -0.430905 2.8272e-06 -46.5596 
-52.041 83.578 -12.47 107.307 85.4773 129.773 0 -0 0 -11.2732 3.50218 -7.83518 26.5003 -6.73935 -1.89384e-05 44.6066 9.45244 13.6104 -180 84.3248 -180 9.75158 7.27051 0.621007 -23.1561 13.6489 -2.83132e-06 -42.3894 11.9217 -11.0747 -1.71041e-06 -78.8878 1.40713e-06 12.8131 1.32338 0.148601 6.7242 0.952315 -23.9677 -6.33086 -11.9711 4.12892 -0 -0 26.2033 8.11021e-05 14.338 41.7125 9.65217 2.3073e-05 -70.7818 -5.68043 -3.39318 -41.3465 -0 -0 33.632 -7.09279e-06 7.17799 -3.81132 -0.479604 6.72767e-06 -44.7422 
-50.514 83.142 -12.536 111.664 85.3029 133.713 0 -0 0 -11.2889 3.09913 -7.67325 26.8305 -6.81111 1.24636e-06 44.6788 9.05065 12.8779 -180 84.9682 -180 8.88061 7.66335 0.596008 -23.5082 13.5433 -1.339e-05 -43.1767 11.0838 -10.5153 -1.15769e-06 -78.3393 9.43145e-07 13.482 1.49991 0.177309 7.81133 1.06509 -23.6621 -6.84367 -13.0197 4.13974 -0 -0 28.4414 2.35061e-05 13.7137 41.7031 9.22109 -3.18381e-05 -69.7292 -5.713 -3.68029 -40.9139 -0 -0 35.8308 5.45785e-06 6.99586 -4.50584 -0.552286 2.30295e-06 -42.5824 
-49.002 82.767 -12.62 115.017 85.0742 136.698 0 -0 0 -11.3276 2.66652 -7.55846 27.119 -6.91417 1.2822e-05 44.8843 8.61003 12.1723 -180 85.7821 -180 7.89178 8.01506 0.553805 -23.8956 13.4739 -8.76697e-05 -43.9791 10.055 -9.85269 -1.25202e-06 -77.6535 1.55564e-06 14.0311 1.6369 0.2015 8.9138 1.13437 -23.2657 -7.43199 -14.0609 3.94244 -0 -0 30.8269 6.2591e-05 12.5498 41.4977 8.3902 -1.11383e-05 -68.8881 -5.80192 -3.99684 -40.3042 -0 -0 37.6708 9.77253e-06 6.96357 -5.34612 -0.652016 4.94543e-06 -40.3015 
-47.504 82.462 -12.718 117.209 84.8325 138.577 0 -0 0 -11.3926 2.22878 -7.49947 27.3707 -7.04707 -4.71284e-05 45.21 8.12655 11.4912 -180 86.7076 -180 6.83803 8.28067 0.495605 -24.3108 13.436 5.62579e-05 -44.7923 8.8731 -9.08181 0 -76.8766 0 14.4507 1.72894 0.219209 10.035 1.15587 -22.7851 -8.07496 -15.0383 3.5291 -0 -0 33.3146 -4.85569e-05 10.8958 41.0497 7.2048 4.0884e-05 -68.1845 -5.94844 -4.32349 -39.513 -0 -0 39.0703 -2.24801e-06 7.08026 -6.30869 -0.781997 -7.05815e-06 -38.0943 
-46.018 82.235 -12.823 118.286 84.6234 139.404 0 -0 0 -11.4619 1.80933 -7.50539 27.587 -7.20391 2.34024e-05 45.6324 7.59323 10.8302 -180 87.7418 -180 5.77739 8.41893 0.425605 -24.7509 13.413 0.000153488 -45.6172 7.60012 -8.2082 -1.09134e-06 -76.0574 1.39544e-06 14.7363 1.77318 0.229297 11.1724 1.12846 -22.2306 -8.72455 -15.8863 2.89645 -0 -0 35.8544 4.88756e-05 8.8483 40.3183 5.75162 -1.24893e-05 -67.5296 -6.13266 -4.62939 -38.5565 -0 -0 39.9975 -4.18583e-06 7.32644 -7.35841 -0.943399 2.94581e-06 -36.1352 
-44.541 82.087 -12.932 118.298 84.4506 139.214 0 -0 0 -11.5297 1.4268 -7.56644 27.7775 -7.38504 1.21315e-05 46.1165 7.02331 10.1918 -180 88.8281 -180 4.76414 8.39584 0.349898 -25.1953 13.408 -3.57005e-05 -46.4685 6.26992 -7.2288 -1.0226e-06 -75.2359 1.32699e-06 14.8959 1.76558 0.230803 12.3256 1.05514 -21.6178 -9.35768 -16.5647 2.05977 -0 -0 38.3963 3.78877e-05 6.56727 39.27 4.16787 1.26051e-08 -66.7696 -6.34587 -4.89387 -37.4344 -0 -0 40.4379 -4.42916e-06 7.68311 -8.44508 -1.13499 -1.40375e-07 -34.5408 
-43.07 82.015 -13.032 117.422 84.3703 138.183 0 -0 0 -11.5531 1.0936 -7.68245 27.9442 -7.57974 -1.74016e-05 46.6258 6.41386 9.57413 -180 90 -180 3.85231 8.18685 0.275801 -25.6346 13.3937 6.22229e-05 -47.3488 4.95939 -6.16006 -0 -74.4848 0 14.9409 1.70764 0.223898 13.4816 0.941684 -20.9604 -9.91094 -17.0246 1.02945 -0 -0 40.8856 5.57823e-05 4.20474 37.9172 2.58679 -2.76051e-05 -65.892 -6.54907 -5.08503 -36.1681 -0 -0 40.4218 5.1856e-08 8.11212 -9.51215 -1.34941 2.99886e-06 -33.3628 
-41.6 82.016 -13.12 115.678 84.3877 136.316 0 -0 0 -11.5173 0.81263 -7.83828 28.0931 -7.78668 1.78634e-05 47.1199 5.77967 8.98566 -0 88.9989 -0 3.0846 7.77903 0.209799 -26.0494 13.3717 -0.000228282 -48.2681 3.70148 -5.005 -9.21543e-07 -73.8431 1.22642e-06 14.8906 1.6008 0.209207 14.6348 0.79767 -20.2776 -10.3628 -17.2512 -0.171618 -0 -0 43.285 1.33752e-05 1.92742 36.2853 1.1409 1.5086e-06 -64.7863 -6.72447 -5.18909 -34.7674 -0 -0 39.9841 1.28984e-06 8.58485 -10.4942 -1.57503 -1.63871e-05 -32.5986 
-40.13 82.082 -13.186 113.145 84.5169 133.687 0 -0 0 -11.3914 0.576452 -8.02392 28.2255 -7.99836 -4.24189e-05 47.5613 5.1261 8.43207 -5.95816e-06 87.9727 -6.17168e-06 2.49747 7.17232 0.156497 -26.4236 13.3262 -0.000141821 -49.2256 2.54377 -3.77707 -0 -73.3613 0 14.7649 1.44999 0.187907 15.7681 0.633943 -19.5864 -10.6782 -17.2383 -1.52396 -0 -0 45.5568 -1.16287e-07 -0.148304 34.4348 -0.0838007 -3.07885e-07 -63.511 -6.84314 -5.19169 -33.2492 -0 -0 39.1845 5.76714e-07 9.06529 -11.3273 -1.79499 -1.12758e-06 -32.2093 
-38.659 82.203 -13.227 109.798 84.7478 130.262 0 -0 0 -11.1572 0.367116 -8.22639 28.3442 -8.21043 7.02011e-05 47.9187 4.46332 7.9218 -0 87.0658 -0 2.11639 6.37784 0.117899 -26.7429 13.2592 -5.931e-05 -50.2184 1.50375 -2.48335 -0 -73.072 0 14.5823 1.26331 0.161603 16.8698 0.463346 -18.903 -10.8395 -17.0036 -3.00582 -0 -0 47.6787 2.37359e-05 -1.94354 32.4337 -1.04271 3.18335e-06 -62.0557 -6.88754 -5.08836 -31.6373 -0 -0 38.0883 -3.28451e-05 9.5224 -11.9541 -1.98979 1.24309e-06 -32.1409 
-37.187 82.371 -13.237 105.628 85.0785 126.033 0 -0 0 -10.7948 0.158103 -8.43801 28.448 -8.41269 3.70441e-05 48.1697 3.79115 7.45464 -0 86.2655 -0 1.95975 5.41822 0.0926971 -26.9965 13.1523 -6.4184e-05 -51.2309 0.618095 -1.14721 -8.69039e-07 -73.0103 1.17424e-06 14.3576 1.0515 0.132403 17.9212 0.296991 -18.2383 -10.8287 -16.5763 -4.59582 -0 -0 49.6238 -6.71208e-06 -3.44036 30.3739 -1.74114 -2.5107e-05 -60.7238 -6.84097 -4.87657 -29.955 -0 -0 36.7726 6.13529e-06 9.92505 -12.3289 -2.13974 -1.55704e-05 -32.3412 
-35.717 82.577 -13.215 100.584 85.4736 120.946 0 -0 0 -10.3011 -0.0850981 -8.648 28.5369 -8.6032 -6.00911e-05 48.2986 3.121 7.032 -7.54342e-06 85.617 -7.69977e-06 2.03433 4.32296 0.0768008 -27.1752 13.0173 -3.44722e-05 -52.241 -0.129995 0.228901 -1.18418e-06 -73.1757 8.79047e-07 14.1006 0.826193 0.102199 18.9098 0.145985 -17.6018 -10.6494 -16.005 -6.27343 -0 -0 51.3854 1.69499e-05 -4.63836 28.306 -2.20318 -3.457e-06 -59.4558 -6.70133 -4.56306 -28.2301 -0 -0 35.3032 -3.63518e-05 10.2488 -12.427 -2.2281 2.298e-05 -32.7626 
-34.251 82.811 -13.161 94.6463 85.9111 114.986 0 -0 0 -9.67838 -0.399194 -8.84893 28.6104 -8.77479 -7.86146e-07 48.3016 2.45518 6.64336 -6.97363e-06 85.1014 -7.04977e-06 2.33941 3.1266 0.0639002 -27.2756 12.849 -8.04654e-05 -53.2244 -0.742001 1.62821 -9.04131e-07 -73.5781 1.2091e-06 13.8147 0.599902 0.0726986 19.822 0.0179253 -17.0012 -10.3082 -15.3459 -8.01568 -0 -0 52.9468 -2.9723e-05 -5.57519 26.2955 -2.47605 6.17282e-05 -58.4892 -6.47304 -4.15704 -26.4886 -0 -0 33.7496 -2.30021e-05 10.4726 -12.2382 -2.24378 -8.68719e-06 -33.3773 
-32.792 83.068 -13.077 87.8532 86.3588 108.19 0 -0 0 -8.93984 -0.821099 -9.0361 28.6708 -8.92469 -1.44215e-05 48.1818 1.80073 6.27392 -2.97553e-06 84.733 -2.71384e-06 2.86401 1.86678 0.0466975 -27.2938 12.6514 3.777e-05 -54.1487 -1.23699 3.03985 -9.45914e-07 -74.2039 1.25065e-06 13.498 0.383798 0.0453997 20.6453 -0.0828699 -16.4373 -9.82351 -14.6582 -9.8023 -0 -0 54.2992 1.87544e-05 -6.29356 24.3708 -2.60572 -1.13824e-05 -57.8678 -6.16687 -3.6723 -24.7557 -0 -0 32.1634 3.0667e-06 10.581 -11.7728 -2.1827 -5.57751e-06 -34.1736 
-31.341 83.343 -12.967 80.4353 86.7942 100.794 0 -0 0 -8.09991 -1.38251 -9.20504 28.7186 -9.0533 -4.0717e-06 47.9523 1.16724 5.90375 -1.64538e-06 84.4906 -1.49428e-06 3.58615 0.580297 0.0181996 -27.2359 12.4471 7.89058e-05 -54.9792 -1.66492 4.46952 -1.31031e-06 -75.026 1.00587e-06 13.1438 0.186305 0.0215 21.3713 -0.154449 -15.9128 -9.21269 -14.0059 -11.6116 -0 -0 55.4401 4.10122e-05 -6.83787 22.5337 -2.63105 5.70116e-05 -57.4588 -5.79604 -3.12259 -23.056 -0 -0 30.5892 1.12815e-06 10.5604 -11.0574 -2.04779 1.83069e-05 -35.1532 
-29.899 83.63 -12.836 72.8193 87.2012 93.2231 0 -0 0 -7.17849 -2.10654 -9.35627 28.7569 -9.16094 -1.0168e-06 47.6303 0.561797 5.50777 -0 84.3566 -0 4.4732 -0.696901 -0.0272 -27.1098 12.2457 1.35787e-05 -55.6875 -2.05859 5.9132 0 -76.0161 0 12.7459 0.0131005 0.0015 21.9914 -0.198192 -15.4273 -8.49712 -13.4406 -13.4254 -0 -0 56.3552 2.78196e-05 -7.25551 20.7826 -2.58649 -4.24218e-06 -57.3678 -5.3749 -2.52478 -21.4116 -0 -0 29.06 1.54719e-06 10.4052 -10.125 -1.84902 -1.43022e-05 -36.3295 
-28.466 83.927 -12.69 65.5713 87.5849 86.0461 0 -0 0 -6.20418 -3.00283 -9.49352 28.7858 -9.24749 3.38041e-05 47.2423 -0.0143117 5.0549 -3.18845e-06 84.3065 -2.88623e-06 5.48357 -1.93229 -0.0925015 -26.9193 12.0323 6.64182e-05 -56.2456 -2.41785 7.34624 -1.69431e-06 -77.1587 2.12391e-06 12.2952 -0.135003 -0.0145 22.5009 -0.220634 -14.9768 -7.70646 -13.0004 -15.2257 -0 -0 57.0378 -7.03541e-05 -7.58384 19.1168 -2.49677 1.76219e-05 -57.6186 -4.92298 -1.90473 -19.837 -0 -0 27.5935 -5.53247e-06 10.1213 -9.01194 -1.60174 -1.31045e-05 -37.7194 
-27.04 84.232 -12.534 59.5378 87.9782 80.1043 0 -0 0 -5.19535 -4.06893 -9.62297 28.8088 -9.31974 -8.0654e-05 46.8127 -0.552066 4.52224 -1.596e-06 84.3097 -1.44489e-06 6.56398 -3.0973 -0.177695 -26.6773 11.8238 6.25121e-05 -56.6363 -2.78272 8.77193 0 -78.4286 0 11.7872 -0.261298 -0.0269992 22.897 -0.227402 -14.5616 -6.8597 -12.7116 -17.0012 -0 -0 57.4872 4.67609e-05 -7.84372 17.5018 -2.37237 1.21559e-05 -58.0222 -4.45139 -1.2844 -18.3479 -0 -0 26.2023 -1.02237e-06 9.71686 -7.75349 -1.32333 1.38915e-05 -39.3457 
-25.62 84.542 -12.374 55.7222 88.3542 76.4083 0 -0 0 -4.17277 -5.28831 -9.75461 28.8228 -9.38326 1.57469e-05 46.3696 -1.0487 3.88755 -0 84.3456 -0 7.658 -4.16812 -0.279102 -26.3939 11.611 -9.95769e-05 -56.845 -3.15685 10.1718 -1.54644e-06 -79.798 1.84951e-06 11.2221 -0.373396 -0.0367001 23.1765 -0.226767 -14.1804 -5.97901 -12.5789 -18.7449 -0 -0 57.7009 1.13031e-05 -8.04728 15.9175 -2.22043 2.21648e-05 -58.5033 -3.97176 -0.692278 -16.9554 -0 -0 24.893 2.40544e-06 9.21042 -6.37896 -1.03209 -3.60253e-06 -41.2243 
-24.206 84.856 -12.211 55.7418 88.7956 76.5681 0 -0 0 -3.13982 -6.6321 -9.89845 28.829 -9.44904 5.11647e-05 45.9335 -1.49459 3.14103 -1.62054e-06 84.4046 -1.46945e-06 8.70257 -5.12706 -0.390396 -26.081 11.4145 2.28782e-05 -56.8679 -3.57923 11.5534 -1.82463e-06 -81.2376 2.12738e-06 10.6062 -0.480895 -0.0445997 23.3343 -0.224152 -13.8376 -5.07124 -12.5887 -20.4552 -0 -0 57.6866 2.95007e-05 -8.19278 14.3315 -2.04107 7.19818e-06 -58.7619 -3.48381 -0.147403 -15.6737 -0 -0 23.6745 6.45556e-06 8.61753 -4.91322 -0.743687 -1.44615e-06 -43.3614 
-22.797 85.172 -12.048 64.6642 89.2128 85.6631 0 -0 0 -2.10612 -8.06155 -10.0661 28.8244 -9.5247 -2.44281e-05 45.5223 -1.88747 2.27758 -4.19522e-06 84.4456 -4.62264e-06 9.64034 -5.95769 -0.502793 -25.7481 11.221 6.17425e-06 -56.7102 -4.03949 12.8933 0 -82.7331 0 9.94992 -0.594797 -0.0517997 23.3719 -0.226574 -13.5325 -4.15048 -12.7112 -22.1356 -0 -0 57.4522 -4.65839e-05 -8.27455 12.7377 -1.83646 8.08741e-06 -58.721 -2.99294 0.324005 -14.5069 -0 -0 22.5502 3.24311e-06 7.96546 -3.37043 -0.471295 -2.00398e-06 -45.7403 
-21.393 85.488 -11.885 99.9916 89.556 121.2 0 -0 0 -1.06963 -9.5317 -10.2668 28.8074 -9.6204 -3.40861e-05 45.1466 -2.22029 1.30484 -5.59546e-06 84.489 -5.84413e-06 10.417 -6.64746 -0.606606 -25.4035 11.0371 -1.46625e-05 -56.3796 -4.5504 14.1838 -1.43269e-06 -84.2707 1.58379e-06 9.26978 -0.7246 -0.0586999 23.2898 -0.236178 -13.2755 -3.22288 -12.9022 -23.7909 -0 -0 57.0116 3.73244e-06 -8.28316 11.1279 -1.60954 -2.2099e-05 -58.2437 -2.49687 0.706106 -13.4614 -0 -0 21.5241 2.86248e-07 7.27799 -1.7596 -0.224695 2.14868e-06 -48.3156 
